<svg width="22" height="22" viewBox="0 0 22 22" fill="none" xmlns="http://www.w3.org/2000/svg">
<path d="M22 11C22 17.0751 17.0751 22 11 22C4.92487 22 0 17.0751 0 11C0 4.92487 4.92487 0 11 0C17.0751 0 22 4.92487 22 11Z" fill="#1D70B8"/>
<path fill-rule="evenodd" clip-rule="evenodd" d="M11 11.5C13.071 11.5 14.75 9.82108 14.75 7.75C14.75 5.67892 13.071 4 11 4C8.92896 4 7.25 5.67892 7.25 7.75C7.25 9.82108 8.92896 11.5 11 11.5ZM11.0002 20C13.7379 20 16.1902 18.7776 17.8408 16.8489C16.4374 14.5413 13.8989 13 11.0006 13C8.10205 13 5.56348 14.5415 4.16016 16.8495C5.81079 18.7779 8.26282 20 11.0002 20Z" fill="white"/>
</svg>
