<svg width="22" height="22" viewBox="0 0 22 22" fill="none" xmlns="http://www.w3.org/2000/svg">
<path d="M22 11C22 17.0751 17.0751 22 11 22C4.92487 22 0 17.0751 0 11C0 4.92487 4.92487 0 11 0C17.0751 0 22 4.92487 22 11Z" fill="white"/>
<path fill-rule="evenodd" clip-rule="evenodd" d="M10.9998 11.5C13.0708 11.5 14.7498 9.82107 14.7498 7.75C14.7498 5.67893 13.0708 4 10.9998 4C8.92869 4 7.24976 5.67893 7.24976 7.75C7.24976 9.82107 8.92869 11.5 10.9998 11.5ZM11 20C13.7377 20 16.1899 18.7776 17.8405 16.8489C16.4371 14.5413 13.8987 13 11.0004 13C8.10184 13 5.56332 14.5415 4.15994 16.8495C5.81062 18.7779 8.26259 20 11 20ZM3.29297 18.8487L3.29298 18.8487C4.19465 19.7342 5.24823 20.4655 6.41103 21H6.41097C5.24819 20.4655 4.19463 19.7342 3.29297 18.8487Z" fill="#1D70B8"/>
</svg>
